<?xml version="1.0" encoding="UTF-8"?>
<svg id="_레이어_1" xmlns="http://www.w3.org/2000/svg" version="1.1" viewBox="0 0 50 50">
  <defs>
    <style>
      .st0 {
        fill: #1a3a32;
      }
    </style>
  </defs>
  <g>
    <path class="st0" d="M26.05,3.2c0,.12-.38.34-.6.47-.6.39-1.21.68-1.73,1.09-.17.15-.33.31-.5.47-.29.31-.85.7-.73.91.06.07.33.07.48.06.34-.03.69-.09,1.04-.14.57-.09,1.14-.2,1.7-.34,2.55-.72,4.61-1.93,7.37-1.63.33.05,1.38.04,1.52.3-.03.16-.3.21-.45.27-.84.24-1.59.49-2.33.89-.28.18-1.12.54-.89.89.06.07.17.13.31.19.68.25,1.49.43,2.2.68,3.16,1.08,5.96,1.03,8.75,3.3.53.41.22.45-.26.32-.84-.19-1.91-.4-2.74-.12-.21.14-.1.33.05.51,2.13,2.28,5.07,3.75,6.7,6.45.25.39.93,1.64-.1.93-.28-.2-2.35-1.51-2.54-1.04-.03.09.02.28.08.4.13.3.28.61.41.92.27.64.53,1.29.84,1.91.62,1.26,1.48,2.39,2.02,3.69.25.59.45,1.2.63,1.81.08.3.4,1.24.09,1.2-.16-.04-.49-.4-.81-.7-.24-.24-.47-.47-.73-.67-.22-.18-.51-.37-.65-.26-.15.14-.11.4-.13.59-.08,2.24.37,4.57-.21,6.63-3.74,13.98-22.82,18.69-32.14,7.48-4.59-5.31-5.17-13.31-1.22-19.03.72-1.02-.47-.48-.97-.34-.65.2-1.3.42-1.91.72-1.11.53-1.99,1.25-3.28,1.28-1.96.09-3.34-1.63-2.65-3.54.52-1.28,1.82-3.03,2.74-4.42,3.16-4.7,8.03-8.78,13.45-10.82,2.17-.79,4.47-1.25,6.77-1.4.22,0,.38.03.4.1h.02ZM34.94,8.5c-.21-.08-.43-.14-.66-.2-1.68-.4-2.84-.78-4.71-1.11-.94-.17.05-.83.09-1.43-.09-.21-1,.13-1.21.16-.84.26-1.56.37-2.51.6-1.96.47-3.61.61-5.53.9-.2,0-.64.28-.77.09-.06-.19.15-.38.34-.65.31-.39.71-.85,1.04-1.22.08-.12.23-.25.23-.39h0c0-.19-.47-.07-.64-.02-7.22,2.01-12.81,7.42-16.44,13.8-.4.65-.89,1.48-.62,2.25.61,1.37,2.25,1.07,3.31.43,1.92-1.22,4.16-1.68,6.22-2.65,1.03-.5,1.97-1.09,2.93-1.65,10.32-6.35,23.59,2.29,21.89,14.23-.07.57-.13,1.08-.26,1.62-.07.26-.07.5-.16.79,0,.04.11-.07.19-.26.31-.73.54-1.5.75-2.25,1.68-6.32-.37-13.7-5.21-18.11-.87-.82.21-.4.6-.14,3.61,2.05,5.69,6.93,6.26,11.02.04.14.07.51.21.42.14-.23.12-.6.14-.88.04-.71.05-1.37.03-2.06,0-.15-.06-.63.12-.64,1.04,1.48,1.04,5.41.8,7.21-.02.21-.37,2.67-.59,2.17-.09-.21-.03-.92-.3-.96-1.93,10.04-12.21,17.45-22.17,13.27-.45-.19-.75-.33-1.22-.63-.25-.1-2.57-1.77-1.64-.68,9.79,8.82,25.79,2.3,28.27-10.2.18-1.17.09-2.35.11-3.54.02-1.11-.04-2.23.03-3.34.11-.84,1.19.02,1.1-.51-1.47-2.53-2.29-5.45-3.98-7.83-.1-.15-.28-.39-.22-.55.08-.43,1.86.26,1.21-.35-1.05-.96-4.33-3.9-5.09-4.59-.09-.09-.15-.17-.07-.3.17-.27.59-.39.81-.55.16-.14.21-.17.03-.31l-2.73-1,.02.04ZM33,20.61c-3.76-3.87-9.48-4.82-14.32-2.86-3.43,1.37-6.2,4.15-7.42,7.73-4.94,14.14,13.53,23.82,22.59,12.75,4.25-5.03,3.75-12.94-.84-17.61h0Z"/>
    <path class="st0" d="M31.04,14.11s-.03.04-.11.03c-.09-.01-.23-.05-.33-.08-.85-.27-1.4-.64-2.3-.7-.07,0-.41,0-.39.02.06.06.3.13.42.16,2.16.59,4.33,1.87,5.52,3.81.15.31-.08.1-.28-.03-3.69-2.79-8.43-3.76-12.99-3.32-.28,0-.64.04-.37-.21,3.2-2.07,7.76-1.94,10.82.32h0Z"/>
    <path class="st0" d="M14.26,11.64c.12.05-.04.2-.23.36-1.3.96-.56,1.5-1.03,2.76-.47,1.21-1.65,2.17-2.92,2.43-.43.09-.87.12-1.28.28-.28.09-.65.42-.87.45-.15,0-.14-.12-.1-.29,1.02-2.55,3.71-5.33,6.42-5.99h0ZM12.24,13.77c-.17-.24-.6.16-.84.36-.14.12-.28.24-.42.37-.36.32-.69.65-.98,1.04-.31.4-.59.93.21.74,1.03-.25,1.92-1.08,2.08-2.12.02-.12.02-.29-.04-.38h-.01Z"/>
  </g>
  <path class="st0" d="M24.62,30.05c.28.37.51.84.81,1.19.17.2.4.34.56.54-.53-.06-1.05-.23-1.58-.1l.16-.39-.77-1.19h-1.21v1.07s.3.46.28.47c-.49-.03-.94.03-1.4.18l.37-.6c-.04-.88.12-1.96.02-2.82-.03-.28-.25-.45-.38-.69h3.73l.57,1.03-.77,1.29h-.37l-.02.02ZM24.8,28.42h-2.21v.96l.06.05c.59,0,1.34.02,1.89,0l.46-.67-.2-.35h0Z"/>
  <path class="st0" d="M31.16,31.21l-.38.62c.52-.1,1.01-.2,1.54-.11l-.42-.51v-2.26c.77.87,1.53,1.75,2.22,2.69l1.04.15-.42-.65v-2.84l.39-.53c0-.11-.04-.02-.05-.02,0,0-1.43-.08-1.46-.02l.39.53v1.98c-.08.02-.06-.02-.08-.04-.71-.81-1.42-1.62-2.11-2.45h-.98s-.06-.08-.09-.02c.13.22.44.4.46.67l-.04,2.8h0Z"/>
  <polygon class="st0" points="19.75 30.07 19.11 28.67 18.59 30.07 19.75 30.07"/>
  <path class="st0" d="M29.14,30.58c-.04.08-.33.41-.41.43h-1.2c-.06,0-.41-.41-.43-.47l.06-2.29s.33-.43.31-.44h-1.47l.38.62c.03.72-.03,2.34.02,2.4l.81.91h1.85l.1-.03.78-.97v-2.38l.36-.54h-1.44c.05.14.33.42.35.54l-.08,2.23h.01Z"/>
  <path class="st0" d="M12.54,27.76l.39.47,1.27,3.05-.19.52c.54-.23,1.09-.1,1.65-.04-.12-.3-.2-.33-.1-.64.2-.6.92-2.52,1.24-2.97.05-.06.37-.34.33-.39h-1.3l.2.43-1.15,2.76c-.08-.04-.11-.15-.15-.22-.4-.83-.68-1.72-1.07-2.55l.16-.42h-1.3.02Z"/>
</svg>
